<svg xmlns="http://www.w3.org/2000/svg" xmlns:xlink="http://www.w3.org/1999/xlink" width="890" zoomAndPan="magnify" viewBox="0 0 667.5 187.499995" height="250" preserveAspectRatio="xMidYMid meet" version="1.0"><defs><g/><clipPath id="0e3ad7d649"><path d="M 562 6 L 666.363281 6 L 666.363281 156 L 562 156 Z M 562 6 " clip-rule="nonzero"/></clipPath><clipPath id="8c1a9ac8a4"><path d="M 0.636719 0 L 666.363281 0 L 666.363281 187 L 0.636719 187 Z M 0.636719 0 " clip-rule="nonzero"/></clipPath></defs><g fill="#ffde59" fill-opacity="1"><g transform="translate(395.531495, 135.053211)"><g><path d="M -145.910156 -28.769531 C -145.910156 -15.207031 -137.28125 -8.21875 -124.128906 -8.21875 L -19.730469 -8.21875 C -6.988281 -8.21875 2.054688 -15.207031 2.054688 -28.769531 C 2.054688 -42.335938 -6.988281 -49.320312 -19.730469 -49.320312 L -124.128906 -49.320312 C -137.28125 -49.320312 -145.910156 -42.335938 -145.910156 -28.769531 Z M -145.910156 -28.769531 "/></g></g></g><g fill="#5ce1e6" fill-opacity="1"><g transform="translate(-1.408978, 166.493085)"><g><path d="M 28.769531 -145.910156 C 15.207031 -145.910156 8.21875 -137.28125 8.21875 -124.128906 L 8.21875 -19.730469 C 8.21875 -6.988281 15.207031 2.054688 28.769531 2.054688 C 42.335938 2.054688 49.320312 -6.988281 49.320312 -19.730469 L 49.320312 -124.128906 C 49.320312 -137.28125 42.335938 -145.910156 28.769531 -145.910156 Z M 28.769531 -145.910156 "/></g></g></g><g clip-path="url(#0e3ad7d649)"><g fill="#ff8bd2" fill-opacity="1"><g transform="translate(556.638966, 129.119066)"><g><path d="M 96.6875 -113 C 84.871094 -119.65625 74.546875 -115.566406 68.089844 -104.109375 L 16.847656 -13.152344 C 10.589844 -2.050781 12.242188 9.253906 24.058594 15.914062 C 35.875 22.570312 46.402344 18.121094 52.65625 7.023438 L 103.902344 -83.933594 C 110.355469 -95.390625 108.507812 -106.34375 96.6875 -113 Z M 96.6875 -113 "/></g></g></g></g><g clip-path="url(#8c1a9ac8a4)"><path stroke-linecap="butt" transform="matrix(1.068456, 0, 0, 1.068456, 17.940599, -60.751169)" fill="none" stroke-linejoin="miter" d="M 33.493158 65.603939 C 16.964488 65.603939 8.946931 75.858954 8.946931 91.513846 L 8.946931 196.089403 C 8.946931 211.744295 16.964488 221.999309 33.493158 221.999309 L 110.846313 221.999309 C 121.101327 221.999309 129.612441 213.491852 129.612441 203.233181 C 129.612441 192.978167 121.101327 184.031992 110.846313 184.031992 L 58.097881 184.031992 L 58.097881 163.032062 L 88.482703 163.032062 C 98.737718 163.032062 107.245176 154.085887 107.245176 143.772377 C 107.245176 133.517362 98.737718 124.571187 88.482703 124.571187 L 58.097881 124.571187 L 58.097881 103.571257 L 110.846313 103.571257 C 121.101327 103.571257 129.612441 94.625082 129.612441 84.370067 C 129.612441 74.056557 121.101327 65.603939 110.846313 65.603939 Z M 214.928313 63.366481 C 214.489596 63.366481 214.273893 63.366481 213.835176 63.366481 C 204.45394 63.366481 195.942826 68.930878 192.180826 77.657694 L 139.867456 188.941968 C 138.065059 192.488266 137.191281 196.089403 137.191281 199.6357 C 137.191281 213.053135 148.374913 224.236767 161.796004 224.236767 C 172.051018 224.236767 180.562132 219.761852 184.104773 209.945554 L 190.162727 192.978167 L 238.655601 192.978167 L 244.439356 209.945554 C 248.040494 219.761852 256.496768 224.236767 266.806622 224.236767 C 280.169217 224.236767 291.352849 213.053135 291.352849 199.6357 C 291.352849 196.089403 290.479071 192.488266 288.68033 188.941968 L 236.4218 77.657694 C 232.385601 69.150237 224.309549 63.801543 214.928313 63.366481 Z M 225.457526 154.956009 L 203.309619 154.956009 L 214.489596 123.262347 Z M 360.640919 63.366481 C 322.618762 63.366481 304.781252 83.441449 304.781252 112.517432 C 304.781252 139.301117 317.273724 153.64717 340.511112 159.865986 L 365.112179 166.139642 C 374.932132 168.812161 376.295811 173.722137 376.295811 177.323274 C 376.295811 181.794534 373.133391 186.269449 364.187217 186.269449 C 351.694744 186.269449 340.946173 183.542091 328.4537 175.524534 C 324.856219 173.287076 321.309922 172.848359 318.198686 172.848359 C 307.015053 172.848359 298.942657 180.430855 298.942657 191.614487 C 298.942657 196.089403 300.741397 200.999379 304.781252 205.035578 C 318.198686 218.398172 340.072394 224.236767 365.112179 224.236767 C 406.190733 224.236767 425.446762 202.79812 425.446762 175.085817 C 425.446762 147.373514 414.263129 134.39114 389.662062 127.682423 L 365.112179 121.463607 C 356.166004 119.226149 353.928546 114.75489 353.928546 110.279974 C 353.928546 104.934936 358.403461 101.333799 365.112179 101.333799 C 374.058354 101.333799 380.715887 104.006318 389.662062 111.153753 C 393.259543 113.881111 397.299397 114.75489 400.842039 114.75489 C 413.334511 114.75489 419.608167 107.172394 419.608167 95.988761 C 419.608167 91.513846 418.299327 87.042586 415.136907 83.441449 C 405.316954 71.822756 382.514628 63.366481 360.640919 63.366481 Z M 456.69805 63.366481 C 443.770517 63.366481 433.025601 74.056557 433.025601 86.603869 C 433.025601 90.640067 433.895724 94.186365 436.133182 97.787502 L 479.939094 172.848359 L 479.939094 198.323204 C 479.939094 213.981753 488.011491 224.236767 504.540161 224.236767 C 521.068832 224.236767 529.086388 213.981753 529.086388 198.323204 L 529.086388 172.848359 L 572.892301 97.787502 C 575.129759 94.186365 576.003537 90.150167 576.003537 86.168808 C 576.003537 73.621496 565.309805 63.366481 552.327432 63.366481 C 542.507479 63.366481 535.360044 67.837741 531.762563 75.420237 L 504.540161 133.082301 L 477.266575 75.420237 C 473.665438 67.837741 466.518004 63.366481 456.69805 63.366481 Z M 456.69805 63.366481 " stroke="#000000" stroke-width="8.379038" stroke-opacity="1" stroke-miterlimit="4"/></g></svg>